<?xml version="1.0" encoding="UTF-8" standalone="no"?>
<svg
   xmlns:dc="http://purl.org/dc/elements/1.1/"
   xmlns:cc="http://creativecommons.org/ns#"
   xmlns:rdf="http://www.w3.org/1999/02/22-rdf-syntax-ns#"
   xmlns:svg="http://www.w3.org/2000/svg"
   xmlns="http://www.w3.org/2000/svg"
   xmlns:xlink="http://www.w3.org/1999/xlink"
   id="svg2"
   viewBox="0 0 7055.5555 6999.1113"
   style="fill-rule:evenodd"
   version="1.1"
   height="248"
   width="250"
   xml:space="preserve"><metadata
   id="metadata278"><rdf:RDF><cc:Work
       rdf:about=""><dc:format>image/svg+xml</dc:format><dc:type
         rdf:resource="http://purl.org/dc/dcmitype/StillImage" /><dc:title></dc:title></cc:Work></rdf:RDF></metadata>
 <defs
   id="defs4">
  <style
   id="style6"
   type="text/css">
   
    .fil0 {fill:#E62129}
    .fil35 {fill:#005DF3}
    .fil33 {fill:#9D29C8}
    .fil18 {fill:url(#id0)}
    .fil19 {fill:url(#id1)}
    .fil6 {fill:url(#id2)}
    .fil13 {fill:url(#id3)}
    .fil26 {fill:url(#id4)}
    .fil45 {fill:url(#id5)}
    .fil7 {fill:url(#id6)}
    .fil1 {fill:url(#id7)}
    .fil4 {fill:url(#id8)}
    .fil16 {fill:url(#id9)}
    .fil23 {fill:url(#id10)}
    .fil41 {fill:url(#id11)}
    .fil40 {fill:url(#id12)}
    .fil28 {fill:url(#id13)}
    .fil21 {fill:url(#id14)}
    .fil9 {fill:url(#id15)}
    .fil39 {fill:url(#id16)}
    .fil11 {fill:url(#id17)}
    .fil15 {fill:url(#id18)}
    .fil8 {fill:url(#id19)}
    .fil12 {fill:url(#id20)}
    .fil3 {fill:url(#id21)}
    .fil5 {fill:url(#id22)}
    .fil17 {fill:url(#id23)}
    .fil42 {fill:url(#id24)}
    .fil38 {fill:url(#id25)}
    .fil14 {fill:url(#id26)}
    .fil25 {fill:url(#id27)}
    .fil10 {fill:url(#id28)}
    .fil20 {fill:url(#id29)}
    .fil24 {fill:url(#id30)}
    .fil43 {fill:url(#id31)}
    .fil44 {fill:url(#id32)}
    .fil37 {fill:url(#id33)}
    .fil27 {fill:url(#id34)}
    .fil36 {fill:url(#id35)}
    .fil29 {fill:url(#id36)}
    .fil31 {fill:url(#id37)}
    .fil30 {fill:url(#id38)}
    .fil34 {fill:url(#id39)}
    .fil22 {fill:url(#id40)}
    .fil32 {fill:url(#id41)}
    .fil2 {fill:url(#id42)}
   
  </style>
  <linearGradient
   y2="16061.5"
   x2="16486.301"
   y1="16061.5"
   x1="9082.8799"
   gradientUnits="userSpaceOnUse"
   id="id0">
   <stop
   id="stop9"
   style="stop-color:#113CD9"
   offset="0" />
   <stop
   id="stop11"
   style="stop-color:#3268D2"
   offset="1" />
  </linearGradient>
  <linearGradient
   gradientTransform="matrix(0.37212774,0,0,0.37212774,-365.74212,-2036.9643)"
   y2="16579.199"
   x2="7055.8301"
   y1="16579.199"
   x1="4739.75"
   xlink:href="#id0"
   gradientUnits="userSpaceOnUse"
   id="id1">
  </linearGradient>
  <linearGradient
   gradientTransform="matrix(0.37212774,0,0,0.37212774,-365.74212,-2036.9643)"
   y2="17527.301"
   x2="14516.7"
   y1="17527.301"
   x1="6472.9199"
   gradientUnits="userSpaceOnUse"
   id="id2">
   <stop
   id="stop15"
   style="stop-color:#0C45DC"
   offset="0" />
   <stop
   id="stop17"
   style="stop-color:#134383"
   offset="1" />
  </linearGradient>
  <linearGradient
   gradientTransform="matrix(0.37212774,0,0,0.37212774,-365.74212,-2036.9643)"
   y2="16471.301"
   x2="15648.6"
   y1="16471.301"
   x1="8654.6797"
   gradientUnits="userSpaceOnUse"
   id="id3">
   <stop
   id="stop20"
   style="stop-color:#1035CC"
   offset="0" />
   <stop
   id="stop22"
   style="stop-color:#0F27E1"
   offset="1" />
  </linearGradient>
  <linearGradient
   y2="23057.199"
   x2="3790.53"
   y1="23057.199"
   x1="2887.24"
   gradientUnits="userSpaceOnUse"
   id="id4">
   <stop
   id="stop25"
   style="stop-color:#005DF3"
   offset="0" />
   <stop
   id="stop27"
   style="stop-color:#8E32B7"
   offset="1" />
  </linearGradient>
  <linearGradient
   gradientTransform="matrix(0.37212774,0,0,0.37212774,-365.74212,-2036.9643)"
   y2="23797.4"
   x2="6267.0898"
   y1="22961.301"
   x1="6267.0898"
   xlink:href="#id4"
   gradientUnits="userSpaceOnUse"
   id="id5">
  </linearGradient>
  <linearGradient
   y2="14623.2"
   x2="18117.801"
   y1="14349.2"
   x1="8493.5801"
   gradientUnits="userSpaceOnUse"
   id="id6">
   <stop
   id="stop31"
   style="stop-color:#744FF4"
   offset="0" />
   <stop
   id="stop33"
   style="stop-color:#6E4CDF"
   offset="1" />
  </linearGradient>
  <linearGradient
   gradientTransform="matrix(0.37212774,0,0,0.37212774,-365.74212,-2036.9643)"
   y2="14832.3"
   x2="7389.4102"
   y1="10238.1"
   x1="3576.98"
   gradientUnits="userSpaceOnUse"
   id="id7">
   <stop
   id="stop36"
   style="stop-color:#FEBA27"
   offset="0" />
   <stop
   id="stop38"
   style="stop-color:#F92F93"
   offset="0.580392" />
   <stop
   id="stop40"
   style="stop-color:#5743FA"
   offset="1" />
  </linearGradient>
  <linearGradient
   y2="13494.5"
   x2="19798.6"
   y1="12511.7"
   x1="8208.7197"
   gradientUnits="userSpaceOnUse"
   id="id8">
   <stop
   id="stop43"
   style="stop-color:#E8007A"
   offset="0" />
   <stop
   id="stop45"
   style="stop-color:#C82382"
   offset="1" />
  </linearGradient>
  <linearGradient
   gradientTransform="matrix(0.37212774,0,0,0.37212774,-365.74212,-2036.9643)"
   y2="14627.6"
   x2="18515.801"
   y1="13408.4"
   x1="2460.6399"
   gradientUnits="userSpaceOnUse"
   id="id9">
   <stop
   id="stop48"
   style="stop-color:#8E32C5"
   offset="0" />
   <stop
   id="stop50"
   style="stop-color:#8A57CD"
   offset="1" />
  </linearGradient>
  <linearGradient
   gradientTransform="matrix(0.37212774,0,0,0.37212774,-365.74212,-2036.9643)"
   y2="14083"
   x2="19125.801"
   y1="12907.1"
   x1="1884.22"
   gradientUnits="userSpaceOnUse"
   id="id10">
   <stop
   id="stop53"
   style="stop-color:#B221BA"
   offset="0" />
   <stop
   id="stop55"
   style="stop-color:#AC44B3"
   offset="1" />
  </linearGradient>
  <linearGradient
   gradientTransform="matrix(0.37212774,0,0,0.37212774,-365.74212,-2036.9643)"
   y2="22672.5"
   x2="18072.801"
   y1="22625.199"
   x1="17065.1"
   xlink:href="#id4"
   gradientUnits="userSpaceOnUse"
   id="id11">
  </linearGradient>
  <linearGradient
   gradientTransform="matrix(0.37212774,0,0,0.37212774,-365.74212,-2036.9643)"
   y2="22684.4"
   x2="14536.4"
   y1="22631.9"
   x1="13416.4"
   xlink:href="#id4"
   gradientUnits="userSpaceOnUse"
   id="id12">
  </linearGradient>
  <linearGradient
   gradientTransform="matrix(0.37212774,0,0,0.37212774,-365.74212,-2036.9643)"
   y2="23225.801"
   x2="6477.6499"
   y1="23199.301"
   x1="5356.7402"
   gradientUnits="userSpaceOnUse"
   id="id13">
   <stop
   id="stop60"
   style="stop-color:#005DF3"
   offset="0" />
   <stop
   id="stop62"
   style="stop-color:#4748D5"
   offset="0.360784" />
   <stop
   id="stop64"
   style="stop-color:#8E32B7"
   offset="1" />
  </linearGradient>
  <linearGradient
   gradientTransform="matrix(0.37212774,0,0,0.37212774,-365.74212,-2036.9643)"
   y2="23029.301"
   x2="15816.9"
   y1="23063.4"
   x1="14685"
   xlink:href="#id4"
   gradientUnits="userSpaceOnUse"
   id="id14">
  </linearGradient>
  <linearGradient
   y2="14680.5"
   x2="17367.801"
   y1="15296.9"
   x1="9126.0996"
   gradientUnits="userSpaceOnUse"
   id="id15">
   <stop
   id="stop68"
   style="stop-color:#4440EF"
   offset="0" />
   <stop
   id="stop70"
   style="stop-color:#3E3ACC"
   offset="1" />
  </linearGradient>
  <linearGradient
   gradientTransform="matrix(0.37212774,0,0,0.37212774,-365.74212,-2036.9643)"
   y2="22733.699"
   x2="16956.301"
   y1="22682.9"
   x1="15871.6"
   xlink:href="#id4"
   gradientUnits="userSpaceOnUse"
   id="id16">
  </linearGradient>
  <linearGradient
   y2="14663.2"
   x2="17006"
   y1="16321.5"
   x1="9228.3799"
   gradientUnits="userSpaceOnUse"
   id="id17">
   <stop
   id="stop74"
   style="stop-color:#1249EE"
   offset="0" />
   <stop
   id="stop76"
   style="stop-color:#2F4BD2"
   offset="1" />
  </linearGradient>
  <linearGradient
   gradientTransform="matrix(0.37212774,0,0,0.37212774,-365.74212,-2036.9643)"
   y2="15338.8"
   x2="5475.3501"
   y1="15309.5"
   x1="3066.1899"
   xlink:href="#id6"
   gradientUnits="userSpaceOnUse"
   id="id18">
  </linearGradient>
  <linearGradient
   gradientTransform="matrix(0.37212774,0,0,0.37212774,-365.74212,-2036.9643)"
   y2="15798.4"
   x2="5891.0601"
   y1="15970.5"
   x1="3590.1001"
   xlink:href="#id15"
   gradientUnits="userSpaceOnUse"
   id="id19">
  </linearGradient>
  <linearGradient
   gradientTransform="matrix(0.37212774,0,0,0.37212774,-365.74212,-2036.9643)"
   y2="15922"
   x2="7217.0298"
   y1="18058.301"
   x1="5463.75"
   gradientUnits="userSpaceOnUse"
   id="id20">
   <stop
   id="stop81"
   style="stop-color:#123ABD"
   offset="0" />
   <stop
   id="stop83"
   style="stop-color:#1830EA"
   offset="0.419608" />
   <stop
   id="stop85"
   style="stop-color:#1737C8"
   offset="1" />
  </linearGradient>
  <linearGradient
   gradientTransform="matrix(0.37212774,0,0,0.37212774,-365.74212,-2036.9643)"
   y2="14200.8"
   x2="4322"
   y1="13942.1"
   x1="1271.62"
   xlink:href="#id8"
   gradientUnits="userSpaceOnUse"
   id="id21">
  </linearGradient>
  <linearGradient
   gradientTransform="matrix(0.37212774,0,0,0.37212774,-365.74212,-2036.9643)"
   y2="15429.9"
   x2="8630.7803"
   y1="11861.2"
   x1="5846.1602"
   gradientUnits="userSpaceOnUse"
   id="id22">
   <stop
   id="stop89"
   style="stop-color:#EE8D18"
   offset="0" />
   <stop
   id="stop91"
   style="stop-color:#F00FB3"
   offset="0.541176" />
   <stop
   id="stop93"
   style="stop-color:#2634DD"
   offset="1" />
  </linearGradient>
  <linearGradient
   gradientTransform="matrix(0.37212774,0,0,0.37212774,-365.74212,-2036.9643)"
   y2="11635.1"
   x2="8103.3599"
   y1="9738.1299"
   x1="5841.2798"
   gradientUnits="userSpaceOnUse"
   id="id23">
   <stop
   id="stop96"
   style="stop-color:#FCBB01"
   offset="0" />
   <stop
   id="stop98"
   style="stop-color:#FE7144"
   offset="0.419608" />
   <stop
   id="stop100"
   style="stop-color:#F7306B"
   offset="1" />
  </linearGradient>
  <linearGradient
   gradientTransform="matrix(0.37212774,0,0,0.37212774,-365.74212,-2036.9643)"
   y2="23581.301"
   x2="12476"
   y1="22666.699"
   x1="12434.5"
   xlink:href="#id4"
   gradientUnits="userSpaceOnUse"
   id="id24">
  </linearGradient>
  <linearGradient
   gradientTransform="matrix(0.37212774,0,0,0.37212774,-365.74212,-2036.9643)"
   y2="23451.1"
   x2="4852.73"
   y1="22555.6"
   x1="4702.5601"
   xlink:href="#id4"
   gradientUnits="userSpaceOnUse"
   id="id25">
  </linearGradient>
  <linearGradient
   gradientTransform="matrix(0.37212774,0,0,0.37212774,-365.74212,-2036.9643)"
   y2="13225.4"
   x2="5854.3901"
   y1="10848.4"
   x1="3701.4399"
   gradientUnits="userSpaceOnUse"
   id="id26">
   <stop
   id="stop105"
   style="stop-color:#FDA63D"
   offset="0" />
   <stop
   id="stop107"
   style="stop-color:#E40989"
   offset="1" />
  </linearGradient>
  <linearGradient
   gradientTransform="matrix(0.37212774,0,0,0.37212774,-365.74212,-2036.9643)"
   y2="23022.5"
   x2="10043.5"
   y1="22990.1"
   x1="9141.79"
   xlink:href="#id4"
   gradientUnits="userSpaceOnUse"
   id="id27">
  </linearGradient>
  <linearGradient
   gradientTransform="matrix(0.37212774,0,0,0.37212774,-365.74212,-2036.9643)"
   y2="16040.3"
   x2="6309.2598"
   y1="16488.4"
   x1="4207.5098"
   xlink:href="#id17"
   gradientUnits="userSpaceOnUse"
   id="id28">
  </linearGradient>
  <linearGradient
   gradientTransform="matrix(0.37212774,0,0,0.37212774,-365.74212,-2036.9643)"
   y2="16092.2"
   x2="7960.5298"
   y1="18320.301"
   x1="6229.1201"
   gradientUnits="userSpaceOnUse"
   id="id29">
   <stop
   id="stop112"
   style="stop-color:#103BC5"
   offset="0" />
   <stop
   id="stop114"
   style="stop-color:#0A3CC1"
   offset="0.368627" />
   <stop
   id="stop116"
   style="stop-color:#0E38E6"
   offset="1" />
  </linearGradient>
  <linearGradient
   gradientTransform="matrix(0.37212774,0,0,0.37212774,-365.74212,-2036.9643)"
   y2="11385.1"
   x2="7477.4302"
   y1="10461.4"
   x1="6266.2002"
   gradientUnits="userSpaceOnUse"
   id="id30">
   <stop
   id="stop119"
   style="stop-color:#F9BC02"
   offset="0" />
   <stop
   id="stop121"
   style="stop-color:#FF7232"
   offset="1" />
  </linearGradient>
  <linearGradient
   gradientTransform="matrix(0.37212774,0,0,0.37212774,-365.74212,-2036.9643)"
   y2="22862.9"
   x2="8747.7002"
   y1="22842.4"
   x1="8051.9102"
   xlink:href="#id4"
   gradientUnits="userSpaceOnUse"
   id="id31">
  </linearGradient>
  <linearGradient
   gradientTransform="matrix(0.37212774,0,0,0.37212774,-365.74212,-2036.9643)"
   y2="23045.301"
   x2="10040.7"
   y1="23710.1"
   x1="9895.5898"
   xlink:href="#id4"
   gradientUnits="userSpaceOnUse"
   id="id32">
  </linearGradient>
  <linearGradient
   gradientTransform="matrix(0.37212774,0,0,0.37212774,-365.74212,-2036.9643)"
   y2="23520"
   x2="4184.75"
   y1="23403.6"
   x1="5107.3799"
   xlink:href="#id4"
   gradientUnits="userSpaceOnUse"
   id="id33">
  </linearGradient>
  <linearGradient
   gradientTransform="matrix(0.37212774,0,0,0.37212774,-365.74212,-2036.9643)"
   y2="23124"
   x2="7615.7998"
   y1="23124"
   x1="6859.3198"
   gradientUnits="userSpaceOnUse"
   id="id34">
   <stop
   id="stop127"
   style="stop-color:#005DF3"
   offset="0" />
   <stop
   id="stop129"
   style="stop-color:#4748D5"
   offset="0.4" />
   <stop
   id="stop131"
   style="stop-color:#8E32B7"
   offset="1" />
  </linearGradient>
  <linearGradient
   gradientTransform="matrix(0.37212774,0,0,0.37212774,-365.74212,-2036.9643)"
   y2="22973.6"
   x2="8741.7197"
   y1="23779.6"
   x1="8266.2695"
   xlink:href="#id4"
   gradientUnits="userSpaceOnUse"
   id="id35">
  </linearGradient>
  <linearGradient
   gradientTransform="matrix(0.37212774,0,0,0.37212774,-365.74212,-2036.9643)"
   y2="22889.4"
   x2="17590.6"
   y1="23694.4"
   x1="17621.4"
   xlink:href="#id4"
   gradientUnits="userSpaceOnUse"
   id="id36">
  </linearGradient>
  <linearGradient
   gradientTransform="matrix(0.37212774,0,0,0.37212774,-365.74212,-2036.9643)"
   y2="22879.9"
   x2="16411.4"
   y1="23634.1"
   x1="16440.199"
   xlink:href="#id4"
   gradientUnits="userSpaceOnUse"
   id="id37">
  </linearGradient>
  <linearGradient
   gradientTransform="matrix(0.37212774,0,0,0.37212774,-365.74212,-2036.9643)"
   y2="22879.6"
   x2="13995.4"
   y1="23634.4"
   x1="14024.3"
   xlink:href="#id4"
   gradientUnits="userSpaceOnUse"
   id="id38">
  </linearGradient>
  <linearGradient
   gradientTransform="matrix(0.37212774,0,0,0.37212774,-365.74212,-2036.9643)"
   y2="23418.6"
   x2="12527.3"
   y1="23134.5"
   x1="11694.4"
   xlink:href="#id4"
   gradientUnits="userSpaceOnUse"
   id="id39">
  </linearGradient>
  <linearGradient
   gradientTransform="matrix(0.37212774,0,0,0.37212774,-365.74212,-2036.9643)"
   y2="22945.699"
   x2="11459.7"
   y1="23302"
   x1="10477.1"
   xlink:href="#id4"
   gradientUnits="userSpaceOnUse"
   id="id40">
  </linearGradient>
  <linearGradient
   gradientTransform="matrix(0.37212774,0,0,0.37212774,-365.74212,-2036.9643)"
   y2="23609.801"
   x2="7581.0801"
   y1="23609.801"
   x1="6979.3501"
   xlink:href="#id4"
   gradientUnits="userSpaceOnUse"
   id="id41">
  </linearGradient>
  <linearGradient
   gradientTransform="matrix(0.37212774,0,0,0.37212774,-365.74212,-2036.9643)"
   y2="16987.301"
   x2="11806.2"
   y1="14131.1"
   x1="11048.7"
   gradientUnits="userSpaceOnUse"
   id="id42">
   <stop
   id="stop141"
   style="stop-color:#FF582C"
   offset="0" />
   <stop
   id="stop143"
   style="stop-color:#E023B3"
   offset="0.388235" />
   <stop
   id="stop145"
   style="stop-color:#0525CE"
   offset="1" />
  </linearGradient>
 <linearGradient
   gradientTransform="matrix(0.37212774,0,0,0.37212774,-365.74212,-2036.9643)"
   y2="13494.5"
   x2="19798.6"
   y1="12511.7"
   x1="8208.7197"
   gradientUnits="userSpaceOnUse"
   id="linearGradient3255"
   xlink:href="#id8" /><linearGradient
   gradientTransform="matrix(0.37212774,0,0,0.37212774,-365.74212,-2036.9643)"
   y2="14623.2"
   x2="18117.801"
   y1="14349.2"
   x1="8493.5801"
   gradientUnits="userSpaceOnUse"
   id="linearGradient3257"
   xlink:href="#id6" /><linearGradient
   gradientTransform="matrix(0.37212774,0,0,0.37212774,-365.74212,-2036.9643)"
   y2="14680.5"
   x2="17367.801"
   y1="15296.9"
   x1="9126.0996"
   gradientUnits="userSpaceOnUse"
   id="linearGradient3259"
   xlink:href="#id15" /><linearGradient
   gradientTransform="matrix(0.37212774,0,0,0.37212774,-365.74212,-2036.9643)"
   y2="14663.2"
   x2="17006"
   y1="16321.5"
   x1="9228.3799"
   gradientUnits="userSpaceOnUse"
   id="linearGradient3261"
   xlink:href="#id17" /><linearGradient
   gradientTransform="matrix(0.37212774,0,0,0.37212774,-365.74212,-2036.9643)"
   y2="16061.5"
   x2="16486.301"
   y1="16061.5"
   x1="9082.8799"
   gradientUnits="userSpaceOnUse"
   id="linearGradient3263"
   xlink:href="#id0" /><linearGradient
   gradientTransform="matrix(0.37212774,0,0,0.37212774,-365.74212,-2036.9643)"
   y2="23057.199"
   x2="3790.53"
   y1="23057.199"
   x1="2887.24"
   gradientUnits="userSpaceOnUse"
   id="linearGradient3265"
   xlink:href="#id4" />
  
  
 
   
   
   
  
    
    
    
    
    
    
    
    
    
    
    
    
    
    
    
    
    
    
    
    
    
    
    
    
    
    
    
    
    
    
    
    
    
    
    
    
    
    
    
    
    
    
    
    
    
    
    
    
    
    
    
    
    
    
    
    
    
    
    
    
   </defs>
 <g
   id="g419"><path
     class="fil0"
     d="m 4409.7732,247.90002 c -20.8392,-7.44255 -39.4456,-28.65383 -52.0979,-46.88809 -20.0949,-29.02597 -2.2328,-26.04894 -21.9556,-59.16831 -67.7272,39.07341 -7.4425,97.12534 5.582,151.82812 -29.7703,-0.74426 -35.3522,-8.55894 -54.7028,-21.21129 -17.1179,-11.16383 -29.3981,-18.97851 -45.3996,-30.8866 -37.5849,-27.90958 -108.2892,-107.17279 -100.8466,-58.79618 0,1.11638 1.1164,3.72128 1.4885,4.83766 0.3721,1.48851 1.4885,3.72128 2.2328,5.20979 l 18.6063,29.02596 c 30.5145,39.81767 87.0779,72.93704 87.8222,125.03492 -60.6568,14.14086 -57.6798,-13.02447 -129.1283,-22.69979 3.3491,39.07341 22.3276,52.09788 48.0044,65.86661 l 71.8207,38.70129 c -43.9111,31.63085 -176.3885,30.51447 -240.7666,47.63235 67.3551,44.65532 177.877,12.28021 212.1128,52.84214 -25.6768,38.32915 -64.006,47.26022 -106.0564,68.4715 16.0015,39.07341 56.5634,33.4915 95.2647,19.72277 25.6768,-8.93107 38.7012,-18.97852 71.8206,-19.72277 -15.6294,66.23874 -99.3581,118.70875 -136.5709,174.52791 61.4011,14.88511 127.2677,-81.12385 174.5279,-106.05641 21.5835,44.65533 -1.1163,93.77619 -22.6997,136.57088 29.7702,0.74426 17.8621,-1.86063 37.957,7.44256 0.3721,-1.11638 1.1164,-3.72128 1.1164,-2.97702 l 3.3491,-5.95405 c 0.3721,-0.37212 1.8607,-2.23276 2.2328,-2.97702 l 33.1193,-47.26022 c 14.513,-31.63086 20.8392,-58.42406 50.9815,-69.96002 16.0015,68.84363 37.9571,172.66727 37.9571,242.62729 24.5604,-17.86213 27.5374,-48.00448 32.003,-81.8681 8.1868,-65.49449 3.7212,-216.20622 78.891,-82.24023 l 5.2098,10.04745 c 0.7443,1.86063 1.4885,3.72127 2.2328,5.58191 9.6753,30.14235 -5.2098,20.83915 12.2802,48.37661 17.1179,-19.72277 31.2587,-31.25873 19.3507,-88.19428 l -28.2817,-77.40257 c 44.6553,3.34915 82.6123,38.32916 116.1038,65.86661 7.4426,5.95405 4.0934,3.72128 11.9081,10.79171 21.2113,19.35064 48.3766,44.2832 77.0304,52.09788 -9.3032,-39.44554 -24.9325,-64.00597 -52.8421,-91.1713 -4.4655,-4.46553 -3.7213,-4.0934 -11.536,-11.16383 -42.0504,-39.07341 34.98,31.63086 -8.1868,-7.07042 l -23.444,-21.95554 c -14.1409,-14.88511 -49.493,-58.05193 -2.6049,-58.05193 19.7228,0 61.4011,23.07192 84.1009,30.14235 10.7917,3.34915 17.49,4.0934 29.7702,7.81468 0,-36.46852 2.6049,-29.77022 -18.6064,-49.49299 -1.1164,-1.11638 -2.977,-2.60489 -4.0934,-3.34915 -28.2817,-24.1883 -80.7517,-30.51447 -103.8237,-58.05193 36.4686,-30.8866 27.1654,-6.32617 113.8711,-29.77021 31.2588,-8.55894 66.2388,2.97702 95.2647,-18.97852 14.8851,-11.16383 10.0475,0.37213 16.0015,-21.95554 -46.5159,0 -162.9919,-2.23276 -189.7851,-15.25723 10.0474,-37.95703 46.1438,-50.9815 74.4255,-69.96002 l 24.1883,-29.02596 c -61.7732,-9.3032 -69.2157,-5.95405 -126.1513,18.97851 -83.3566,36.84065 -4.0934,-59.16831 23.4441,-91.17129 18.2342,-21.21129 23.0719,-22.6998 38.7013,-44.65533 16.7457,-23.44405 27.5374,-29.77022 40.934,-50.60938 -65.8666,2.97703 -127.2677,88.93853 -189.7851,122.0579 0,-97.49746 16.7457,-71.44852 32.7472,-136.57088 -92.6598,0 -59.5404,92.65981 -116.476,127.63982 -39.0734,-58.79619 -21.5834,-145.12982 -42.0504,-215.089836 -5.2098,-17.862132 -6.6983,-10.419577 -11.1638,-30.142347 l -14.8852,-4.465533 -30.5144,213.229196 z m 44.2832,104.5679 c 68.8436,0 124.2906,55.81916 124.2906,124.29066 0,68.84364 -55.8191,124.29067 -124.2906,124.29067 -68.8437,0 -124.2907,-55.81916 -124.2907,-124.29067 0,-68.84363 55.8192,-124.29066 124.2907,-124.29066 z"
     id="path150"
     style="fill:#e62129;stroke-width:0.37212774" /><circle
     class="fil0"
     cx="4453.6841"
     cy="476.75858"
     r="93.031937"
     id="circle152"
     style="fill:#e62129;stroke-width:0.37212774" /><path
     style="fill:url(#id7);stroke-width:0.37212774"
     id="path156"
     d="m 1375.4436,1795.5793 c 88.5664,0 194.9949,33.1194 250.8141,90.7992 103.0794,105.3121 105.6843,155.9215 105.6843,296.2136 0,117.9645 -205.0424,260.1173 -205.0424,417.1552 0,82.2403 2.2327,116.8482 58.0519,177.1328 98.986,106.4286 317.0528,70.3322 335.6592,-132.1053 2.6049,-28.6538 3.7213,-75.1698 68.8436,-75.1698 34.6079,0 68.4716,43.1668 68.4716,91.1713 0,143.6413 -367.6623,327.8445 -216.2063,679.1331 65.8666,152.5724 215.0899,246.7207 382.9195,246.7207 40.1898,0 45.7717,-15.2572 68.4715,-30.5145 1.1164,-181.2262 -125.4071,-21.9555 -280.2122,-182.7147 -5.954,-6.3262 -19.3506,-21.2113 -24.5604,-28.2817 -64.7503,-88.1943 -62.5175,-233.3241 -6.3262,-320.0299 66.6109,-102.7072 82.6123,-107.1727 136.1987,-182.7147 60.6569,-85.5894 111.6384,-196.4834 39.8177,-304.4005 -6.3262,-9.6753 -2.2328,-2.977 -8.5589,-12.2802 -57.6798,-88.1943 -184.9475,-114.2432 -264.2107,-68.0994 -42.7947,24.9326 -74.4256,59.5405 -87.0779,117.9645 -10.7917,50.9815 -13.0245,132.4775 -86.3336,121.3137 -64.006,-9.6753 -65.4945,-75.1698 -51.3537,-129.8726 39.8177,-154.0609 198.3441,-191.2737 185.3196,-505.3495 l -31.6308,-106.0564 c -12.6524,-22.6998 -8.559,-68.0994 -102.3351,-146.9904 -134.3382,-113.1269 -327.4725,-138.8037 -487.1153,-56.5635 -169.6902,87.4501 -147.7347,189.7852 -86.7057,149.5954 42.7947,-28.2817 98.986,-105.3122 237.4175,-105.3122 z"
     class="fil1" /><path
     style="fill:url(#id42);stroke-width:0.37212774"
     id="path158"
     d="m 2475.4532,2751.5755 c -1.8607,93.7761 14.1408,83.7287 97.4974,91.9155 74.0535,7.4426 167.8297,53.9585 211.7407,114.6154 96.7532,133.2217 96.3811,282.0728 -15.2572,405.9913 -58.0519,64.7502 -157.41,200.2047 -157.41,297.7022 0,95.2647 5.954,166.3411 81.4959,237.4175 145.1298,136.5709 347.1952,53.2143 517.6297,13.0245 430.9239,-101.5909 1006.9777,6.6983 1371.6629,252.3026 l 140.2921,95.2647 c 18.2343,12.6523 29.026,23.444 46.1439,37.2128 62.5174,50.6093 110.894,96.0089 166.7132,152.2002 103.0794,103.0794 138.0594,157.41 214.7177,263.0943 14.513,19.7228 46.516,87.8222 71.4485,87.8222 77.4026,0 -86.3336,-200.949 -103.8236,-222.5324 -53.9585,-67.3551 -94.8926,-124.6628 -152.2003,-181.5984 -57.3076,-56.9355 -107.917,-108.6613 -171.1787,-162.6198 -295.4694,-252.3026 -672.0627,-397.8045 -1058.7034,-443.5762 -116.1039,-13.7688 -187.5524,-17.8622 -298.0744,-7.0705 -20.0949,1.8607 -40.1898,0.3722 -60.2847,0.7443 -270.1647,1.8606 -545.1671,183.459 -633.3614,-26.4211 -19.3506,-46.1438 -16.7457,-92.2877 -4.4655,-132.8496 l 26.4211,-56.5634 c 35.7242,-67.3551 37.2127,-37.957 59.5404,-75.5419 l 112.7547,-155.9216 c 40.5619,-61.7732 44.6553,-156.6657 44.6553,-228.1143 0,-53.9585 -50.9815,-181.5983 -102.7072,-238.906 l -61.4011,-59.9125 c -45.7717,-34.2358 -93.0319,-59.1684 -155.1773,-72.565 -142.897,-31.2587 -135.8266,0.3722 -189.413,14.8852 z"
     class="fil2" /><path
     style="fill:url(#id21);stroke-width:0.37212774"
     id="path160"
     d="m 107.97649,3760.7859 c 0,25.3047 34.60788,45.3996 58.05193,56.1913 30.8866,14.1408 58.05193,24.5604 87.07789,-36.0964 0.37213,-0.7443 1.11638,-2.977 1.48851,-3.7213 l 411.57328,-566.0063 256.02389,-262.35 c 0.74425,-0.7443 2.23276,-2.2328 2.97702,-2.9771 l 128.38409,-113.4989 c 1.1164,-1.1164 2.977,-2.2328 4.4655,-3.3492 l 48.0045,-43.1668 c 15.2572,-13.0245 23.0719,-18.9785 37.957,-30.5145 34.6079,-27.1653 97.8696,-77.4025 47.2602,-131.3611 -62.5174,-66.9829 -152.5723,41.3062 -243.3715,117.5924 -129.50045,108.6613 -300.30708,278.3516 -416.78307,410.0848 -73.30916,82.9845 -423.10924,532.8869 -423.10924,608.801 z"
     class="fil3" /><path
     style="fill:url(#linearGradient3255);stroke-width:0.37212774"
     id="path162"
     d="m 6975.2218,3783.4857 c -35.7243,-74.4256 -87.45,-148.8511 -132.4775,-216.5784 l -168.5738,-233.6962 c -5.582,-7.4425 -7.0705,-8.931 -13.0245,-17.1179 -34.6079,-45.0274 -67.3551,-95.6368 -107.5449,-135.0823 l -227.7422,-242.6273 c -4.8377,-4.8377 -10.4196,-9.3032 -16.0015,-14.513 l -343.846,-301.0513 c -38.3292,-31.2588 -77.0305,-58.4241 -115.7318,-88.9386 l -178.2491,-117.2202 c -81.496,-53.9585 -164.4805,-106.0564 -251.5584,-150.3396 -13.7687,-7.0704 -21.5834,-9.3032 -36.8406,-16.7458 l -302.912,-144.3855 c -303.2841,-120.1973 -607.3125,-220.6718 -933.6685,-265.6992 -51.3536,-7.0705 -116.8481,-18.9785 -170.4345,-26.049 -126.5235,-16.7457 -245.6043,-15.6293 -370.2671,-24.9325 -110.1498,-7.8147 -548.8884,19.7227 -660.8989,43.911 -62.5174,13.3966 -218.0668,9.6754 -225.8815,77.7747 -3.3492,30.5145 16.3736,52.0979 36.4685,60.6569 42.7947,18.9785 116.1038,-14.513 161.5034,-22.3277 15.6294,-2.6049 25.6768,-0.7443 41.6783,-3.7213 20.8392,-4.0934 16.7458,-8.5589 40.9341,-11.9081 l 181.5983,-16.0015 c 54.7028,-2.6049 32.003,-16.3736 189.413,-15.2572 158.1543,0.7443 132.1054,-30.5145 366.5459,-2.977 61.7732,7.4425 135.4545,-4.0934 192.7621,4.8376 l 179.7377,25.3047 c 19.7228,4.0934 23.072,1.8607 42.4226,3.3492 40.9341,2.977 17.1179,2.977 42.4226,10.4196 23.0719,6.6983 59.5404,8.1868 84.8451,14.1408 26.4211,6.3262 54.7028,5.954 84.473,14.1409 l 357.6147,90.0549 c 9.3032,2.977 27.1654,8.931 40.562,12.6523 27.9095,8.1868 47.6323,16.0015 74.0534,24.1883 l 559.6801,244.8601 c 22.6998,13.0244 42.0504,21.5834 63.2617,35.3521 59.1683,39.4455 125.4071,68.4715 185.6918,110.1498 21.9555,15.2573 37.2127,23.0719 60.2847,38.7013 22.3276,14.8851 36.4685,24.9326 59.1683,39.4455 l 119.453,85.5894 c 20.8391,17.1179 36.0964,26.049 57.6798,40.9341 l 109.4055,87.8221 c 73.3092,55.4471 149.5954,122.43 211.7407,190.5294 l 273.5139,288.0269 c 1.1164,1.1164 2.6049,2.977 3.3492,4.0934 l 101.963,125.407 c 53.9585,63.2618 99.7302,133.2218 147.7347,201.3212 8.931,13.0244 13.0244,20.467 20.467,32.7472 l 95.2647,147.3626 c 13.7687,23.0719 2.977,16.3736 21.5834,32.3751 23.0719,20.467 34.6079,1.8606 48.7487,-19.3506 z"
     class="fil4" /><path
     style="fill:url(#id22);stroke-width:0.37212774"
     id="path164"
     d="m 1913.9124,2258.5062 c 0,99.3581 139.92,11.1638 281.7007,135.4545 7.4426,6.6983 2.977,1.8606 11.536,11.1638 139.92,151.456 111.6383,330.4495 -18.2343,484.8825 -80.7517,96.0089 -157.7821,227.37 -90.427,360.2196 10.4196,20.8392 35.3521,47.6324 50.6093,63.2617 20.8392,21.2113 21.2113,17.8622 51.7258,32.003 38.3292,17.49 94.1483,19.3507 130.989,13.3966 3.7212,-0.7442 62.5174,-33.8636 81.4959,-55.0749 36.4686,-41.3062 30.8866,-54.3306 43.539,-115.7317 l 11.9081,-41.3062 c 30.5145,-75.1698 144.0134,-55.447 144.0134,30.1424 0,54.3306 -72.937,139.5479 -100.4745,172.6672 -37.5849,45.7717 -83.7287,105.3122 -107.917,165.2248 -52.47,130.6168 -45.3996,390.362 117.2202,390.362 22.6998,0 45.3996,-30.1424 45.3996,-53.2143 0,-68.8436 -68.4715,-37.2128 -68.4715,-212.485 0,-27.5374 8.9311,-51.7257 18.9785,-68.0993 l 11.9081,-29.7702 c 5.5819,-14.513 0,-1.1164 7.4426,-14.8852 l 60.6568,-80.0074 c 0.3721,-0.7443 1.4885,-2.6049 2.2327,-3.3492 l 62.5175,-80.7517 c 1.1164,-1.1164 2.6049,-2.977 3.3492,-4.0934 l 58.424,-85.2173 c 18.2343,-30.8866 17.49,-67.7272 17.49,-104.5678 0,-74.0535 -43.1668,-154.0609 -104.5679,-183.459 -100.4745,-48.3766 -209.1358,-27.9096 -276.4909,83.3566 -27.1653,44.6553 -31.2587,153.3166 -89.3107,153.3166 -97.4974,0 -59.5404,-147.3626 -15.2572,-219.9275 39.8177,-65.1223 38.7013,-49.8651 69.96,-97.1253 12.2802,-18.2343 21.5834,-31.2587 33.4915,-50.2373 87.45,-142.897 96.009,-275.7466 26.4211,-430.5518 -45.3996,-101.2187 -123.5464,-157.7821 -218.439,-198.7162 -43.5389,-18.6064 -187.1802,-48.7487 -230.7192,-13.7687 -1.1164,1.1164 -2.977,2.6049 -4.0934,3.7213 l -10.0474,12.6523 c -7.0705,13.0245 -7.8147,8.9311 -7.8147,30.1424 z"
     class="fil5" /><path
     style="fill:url(#id2);stroke-width:0.37212774"
     id="path166"
     d="m 2043.0407,4876.0527 c 0,32.7473 67.7273,61.4011 98.6139,68.4715 30.1423,-19.7227 87.45,-116.8481 117.2202,-156.2936 l 148.1069,-170.4345 c 1.8606,-1.8607 8.1868,-8.559 11.1638,-11.536 101.5909,-107.917 306.6333,-251.9305 437.9944,-313.3315 64.0059,-30.1424 120.9415,-55.0749 193.1342,-79.6354 452.1353,-153.3166 925.1096,-107.917 1338.5435,123.5464 146.9905,82.6124 260.4894,177.1328 380.6867,294.7252 46.8881,45.7717 82.2402,96.3811 125.0349,148.1068 47.6324,57.6798 53.5864,78.519 82.6124,122.4301 17.8621,26.7932 7.4425,19.3506 48.7487,19.3506 11.1639,-38.3291 -11.5359,-61.0289 -34.6079,-94.5204 -182.3426,-267.1878 -343.4739,-427.5748 -632.6171,-588.7061 -187.1803,-104.5679 -528.4214,-212.1128 -728.9983,-212.1128 -261.6058,0 -406.7356,7.0704 -664.9922,93.7762 -35.7243,11.908 -65.8666,23.8161 -99.3581,37.2127 -170.8067,68.0994 -377.7097,194.995 -508.6987,325.9839 l -74.7976,69.2158 c -50.9815,56.5634 -238.1618,270.1647 -238.1618,323.379 z"
     class="fil6" /><path
     style="fill:url(#linearGradient3257);stroke-width:0.37212774"
     id="path168"
     d="m 2817.0664,2645.5191 c 0,60.2846 16.3737,76.6583 105.3122,59.9125 l 132.1053,-27.5374 c 355.0099,-53.9586 648.2466,-62.5175 1024.0956,-4.0934 232.2077,36.0964 365.4294,76.6583 579.4029,148.8511 l 494.9299,233.324 c 69.2157,41.3062 167.4574,100.1024 231.0913,149.2233 l 150.7117,114.2432 c 176.7607,144.3856 346.451,304.7726 486.371,484.8824 5.5819,7.0705 10.4196,12.6524 17.1179,20.8392 69.2157,81.496 127.2676,175.6443 186.8081,260.8615 16.3736,23.4441 45.3996,92.2877 74.7977,92.2877 54.7027,0 -4.4656,-78.5189 -19.7228,-101.5909 -85.2173,-129.5004 -237.4175,-355.382 -342.3575,-461.8105 l -163.3641,-170.8066 c -7.0704,-6.6983 -8.1868,-7.8147 -15.6294,-14.8851 -1.4885,-1.4885 -6.3261,-5.5819 -7.8147,-7.0705 l -91.9155,-82.6123 c -5.5819,-4.8377 -2.977,-2.2328 -8.1868,-6.6983 -282.0728,-236.6733 -549.6327,-416.0388 -895.3394,-553.7261 -233.6962,-93.4041 -375.4769,-135.4545 -625.9188,-185.6917 -317.0529,-63.6339 -483.0218,-53.5864 -795.9813,-53.5864 -55.447,0 -352.0328,42.7947 -408.9683,53.9585 -34.9801,6.6983 -106.8007,10.0474 -106.8007,52.47 z"
     class="fil7" /><path
     style="fill:url(#id19);stroke-width:0.37212774"
     id="path170"
     d="m 965.73093,4253.8551 c 0,21.2113 18.97852,31.2588 35.35217,40.562 77.4025,45.3996 68.4715,49.1208 154.0609,-94.1483 27.1653,-45.3996 56.5634,-81.496 86.7057,-125.7792 59.1683,-85.9615 129.1283,-159.2707 194.995,-237.4175 122.8021,-145.502 206.903,-199.8326 331.5658,-313.3316 62.8896,-57.3077 14.8851,-119.8251 -36.4685,-119.8251 -72.9371,0 -363.1967,306.2611 -427.2027,377.3375 -55.447,61.4011 -339.38049,420.1322 -339.38049,472.6022 z"
     class="fil8" /><path
     style="fill:url(#linearGradient3259);stroke-width:0.37212774"
     id="path172"
     d="m 3021.7367,2834.9321 -7.4426,53.2142 c 0,85.5894 220.2997,-1.8606 394.4554,0 l 235.1848,-7.4425 c 207.6473,0 426.0862,42.4225 628.8959,84.473 23.8161,4.8376 23.444,7.4425 46.8881,13.7687 85.9615,23.8162 148.1068,37.957 232.9519,70.7043 332.3101,127.6398 576.798,261.6058 853.2889,482.2775 20.8392,16.7458 41.6783,36.4685 64.7503,56.5634 l 186.436,177.8771 c 144.3855,144.3856 210.6243,239.6503 326.356,402.2701 85.5894,119.8251 54.7028,130.989 119.453,130.989 10.7917,-51.3537 -49.493,-118.7088 -77.0305,-158.1543 -9.3032,-13.3966 -13.7687,-23.4441 -23.0719,-37.5849 l -216.9505,-283.9335 c -12.6523,-14.8851 -17.49,-23.8162 -30.1423,-37.957 l -393.339,-365.8016 c -24.5604,-18.6064 -46.8881,-37.2128 -72.9371,-55.8192 -129.1283,-90.0549 -327.4724,-222.9045 -475.2071,-283.5613 -54.7028,-22.6998 -112.0104,-50.6094 -173.7836,-76.6583 -61.4011,-25.6768 -123.9186,-47.6324 -189.0409,-69.2158 -125.4071,-41.6783 -268.6763,-77.7747 -407.1078,-101.2187 -204.6702,-34.6079 -216.5783,-32.7473 -400.4094,-39.8177 -27.9096,-1.1164 -37.9571,-7.8147 -60.2847,-7.8147 h -144.0135 c -14.8851,0 -17.1178,6.3262 -45.3995,7.8147 -19.7228,1.1164 -41.3062,-0.7442 -61.029,-0.3721 -28.6538,0.7442 -78.1468,5.954 -111.6383,10.0474 -55.447,6.6983 -155.5494,14.8851 -199.4605,35.7243 z"
     class="fil9" /><path
     style="fill:url(#id28);stroke-width:0.37212774"
     id="path174"
     d="m 1185.6584,4382.9835 c 0,33.4915 85.2173,69.2157 106.0564,60.6568 l 162.992,-239.2781 c 30.1423,-40.1898 58.7962,-72.9371 87.45,-109.7777 14.8851,-18.9785 28.2817,-34.2358 44.6553,-53.9586 14.513,-17.8621 32.3751,-39.8176 48.7488,-57.6798 32.003,-35.3521 64.7502,-65.1223 98.6138,-98.9859 68.0994,-68.0994 141.7807,-123.9186 215.8341,-186.436 46.8881,-39.4456 30.1424,-119.0809 -35.3521,-119.0809 -47.6324,0 -126.8956,83.7287 -165.969,114.9875 -175.2722,141.0364 -369.895,371.7556 -494.5578,560.0522 -17.8621,26.7932 -68.0993,98.986 -68.0993,129.1283 z"
     class="fil10" /><path
     style="fill:url(#linearGradient3261);stroke-width:0.37212774"
     id="path176"
     d="m 3484.6636,3131.1458 h 205.0424 c 92.2877,0 293.6088,30.5144 386.6407,45.3995 31.6309,5.2098 51.3536,11.1639 87.8222,18.6064 l 254.9075,71.4486 c 52.47,17.8621 106.8006,34.6078 155.1772,56.9355 128.012,58.7962 165.5969,69.2158 295.8416,144.3856 l 323.7511,215.0898 c 22.3277,18.6064 41.6783,30.5145 64.006,49.493 157.0379,133.2217 298.4464,277.2351 424.2256,440.9714 l 133.2217,192.7621 c 13.7688,19.7228 30.1424,61.7732 52.0979,61.7732 108.2892,0 -252.3026,-425.7141 -314.4479,-497.1626 -71.4485,-82.2403 -182.3426,-189.4131 -266.4435,-257.1403 -104.94,-84.473 -146.6183,-118.3366 -261.2337,-194.2507 -339.7526,-226.2536 -800.4467,-396.316 -1214.2528,-432.4124 -218.4389,-18.9785 -349.4279,-19.7228 -568.9833,0 -30.8866,2.977 -105.6843,9.6753 -133.5938,18.2342 -37.2128,11.536 -53.2143,57.3077 -24.5605,86.3337 37.2128,38.3291 252.6748,-21.2113 400.7816,-21.2113 z"
     class="fil11" /><path
     style="fill:url(#id20);stroke-width:0.37212774"
     id="path178"
     d="m 1610.6283,4633.4254 c 14.1409,21.2113 65.4945,60.6569 98.6139,60.6569 29.398,0 39.4455,-46.516 73.6813,-93.032 77.7746,-106.4285 133.5938,-193.8785 231.8355,-291.7481 95.6369,-95.6369 166.7133,-165.5969 274.6303,-248.9535 50.6094,-39.0734 87.8222,-40.1898 87.8222,-101.963 0,-32.003 -49.493,-81.1238 -109.0335,-40.934 -193.8785,131.3611 -361.336,291.7481 -502.3724,476.6956 -38.7013,50.6094 -141.0364,179.7377 -155.1773,239.6503 z"
     class="fil12" /><path
     style="fill:url(#id3);stroke-width:0.37212774"
     id="path180"
     d="m 2855.0235,3677.4293 c 0,94.1483 120.5694,36.0964 174.5279,22.6998 317.0528,-78.1469 384.7801,-68.0994 720.8114,-68.0994 l 148.8511,18.2343 c 143.6413,22.6997 283.5613,57.6798 416.0388,107.5449 229.6028,87.0779 225.1373,101.5908 402.6422,196.8555 98.6139,52.8422 248.9535,181.9705 339.7527,267.5599 18.2342,17.1179 28.2817,20.8391 45.0274,38.3291 112.3826,119.0809 216.9505,248.2092 302.1677,388.5014 17.1179,28.2817 18.9786,30.8866 53.2143,22.6998 0,-43.1668 -4.4655,-42.4226 -21.5834,-69.2158 l -288.7711,-378.826 -246.3486,-224.0209 -174.5279,-121.3136 c -187.5524,-115.3596 -303.2841,-169.3182 -523.2116,-242.9995 -313.3316,-105.3121 -713.741,-129.5004 -1053.8658,-73.3091 l -247.0928,56.5634 c -26.421,8.1868 -46.8881,22.6998 -46.8881,59.5404 z"
     class="fil13" /><path
     style="fill:url(#id26);stroke-width:0.37212774"
     id="path182"
     d="m 1071.7873,2167.3349 c 0,84.8451 8.1868,104.1958 48.7488,163.7362 13.7687,20.0949 8.931,24.1883 31.2587,37.2128 42.7947,12.6523 79.6353,-8.1868 79.2632,-56.5634 0,-27.1654 -100.1023,-147.7347 -4.0934,-247.0928 57.3077,-59.1684 152.2003,-56.9356 208.7637,-18.6064 138.0594,93.404 9.6753,239.6502 -59.9126,341.6132 -124.6628,182.7147 -130.2447,379.9425 17.1179,551.1212 38.3291,44.6553 167.0853,116.476 225.1373,116.476 47.2602,0 125.0349,14.8851 130.9889,-53.5864 3.7213,-43.5389 -14.8851,-42.0504 -31.2587,-68.0994 -88.5664,0 -136.1988,-9.6753 -211.3686,-70.3321 -51.7257,-41.6783 -100.8466,-122.8022 -100.8466,-172.2952 0,-71.4485 -0.7442,-123.5464 33.8636,-193.8785 17.4901,-35.3522 38.3292,-67.3551 61.029,-97.8696 87.0779,-118.7088 177.8771,-258.2567 43.9111,-408.2241 -157.4101,-176.0165 -472.6023,-48.3766 -472.6023,176.7606 z"
     class="fil14" /><path
     style="fill:url(#id18);stroke-width:0.37212774"
     id="path184"
     d="m 753.24599,4140.3562 c 13.76873,26.7932 72.19279,59.5404 104.19577,58.424 l 277.23514,-390.7341 c 92.6598,-113.8711 245.2322,-282.0728 354.2656,-373.9884 10.4196,-8.5589 21.2113,-18.2342 32.7473,-27.9095 13.0244,-11.1639 17.49,-13.7688 29.7702,-23.4441 13.3966,-10.7917 18.2343,-17.8621 31.2587,-29.3981 28.6539,-24.9325 111.6383,-77.7747 111.6383,-116.1038 0,-56.9356 -56.9355,-106.0564 -142.1527,-28.2817 -21.5835,19.3506 -40.562,33.4914 -62.8896,50.9815 l -181.5984,160.0149 c -33.4915,25.6768 -28.2817,33.4915 -56.1913,57.6798 -48.0044,41.6783 -81.4959,82.9845 -116.4759,118.7087 l -194.25072,238.5339 c -37.58491,52.0979 -182.71473,249.6977 -187.18026,305.5169 z"
     class="fil15" /><path
     style="fill:url(#id9);stroke-width:0.37212774"
     id="path186"
     d="m 540.76105,4027.2294 c 56.19129,35.3521 63.26172,47.6323 112.01045,42.7946 7.07043,-11.5359 11.16384,-21.5834 18.60639,-34.6078 48.37661,-84.8452 107.54492,-166.7133 164.10833,-245.6043 l 435.38948,-490.0923 c 40.5619,-34.2357 77.4026,-74.7977 119.0809,-108.6613 76.2861,-61.4011 26.421,-128.3841 -37.2128,-128.3841 -21.2113,0 -62.1453,41.3062 -93.032,66.2388 -12.2802,10.0474 -21.5834,18.6064 -32.3751,28.2817 l -168.5738,157.41 c -10.0475,10.4196 -16.3737,18.9785 -24.5605,28.6539 -1.1163,1.1163 -2.2327,2.977 -3.3491,4.0934 l -81.86811,84.8451 c -18.60639,19.3506 -37.21278,42.4226 -52.09789,61.4011 -116.84811,148.1068 -174.52791,205.0424 -282.81708,376.9654 -42.79469,67.7272 -73.68129,97.4974 -72.56491,155.9215 z M 2521.2249,2470.9911 c 0,118.7088 169.6902,26.4211 279.84,6.6983 138.8037,-25.3046 194.2507,-42.4225 359.8476,-64.7502 44.2832,-5.954 79.6353,-6.3262 124.6628,-11.9081 176.0164,-22.6998 469.6252,-19.3506 660.1546,4.4656 l 365.8015,59.1683 c 156.2937,32.3751 410.0848,125.0349 495.6742,141.7806 33.4915,6.3262 56.5634,11.1639 88.5664,17.8622 164.8526,34.2357 478.9284,-34.98 583.1242,46.8881 42.7947,33.4915 48.3766,43.1668 73.6813,93.404 61.401,123.1743 67.3551,296.2137 213.6013,438.7386 81.1238,78.8911 187.9245,58.052 237.0454,97.1254 39.0734,31.2587 12.6523,161.8755 103.0793,223.2766 14.8851,10.0475 35.3522,18.2343 50.2373,26.049 81.1238,41.3061 60.6568,70.7042 103.0794,146.9904 l 231.4634,346.4509 c 16.3736,18.6064 45.0275,33.8637 45.0275,-15.6293 0,-19.7228 -196.8556,-300.6792 -222.5324,-346.4509 -44.2832,-78.8911 -26.4211,-120.9416 -110.8941,-170.0624 -71.8206,-42.0505 -105.3121,-43.9111 -121.3136,-166.7133 -14.1409,-110.1498 -58.7962,-102.3351 -151.456,-129.5004 -38.7013,-11.1638 -71.0764,-17.49 -103.0794,-40.9341 -118.7087,-88.1942 -157.41,-284.3056 -213.6013,-431.296 -114.9875,-301.4235 -554.0982,-120.5694 -845.1021,-224.7652 -34.6079,-12.2802 -69.96,-26.421 -105.3122,-39.0734 -135.4545,-49.1208 -291.376,-91.5434 -446.5533,-122.43 -361.336,-72.1928 -499.3954,-66.2387 -867.0576,-66.2387 l -113.499,8.1868 c -32.7472,2.6049 -80.7517,10.4195 -114.9874,13.7687 -124.6628,12.2802 -305.1448,46.8881 -424.2256,76.6583 -65.1224,16.3736 -174.528,30.8866 -174.528,83.3566 z"
     class="fil16" /><path
     style="fill:url(#id23);stroke-width:0.37212774"
     id="path188"
     d="m 1875.9554,1871.4934 c 58.424,0 52.8421,-90.4271 235.929,-128.3841 312.5873,-64.7502 518.3739,299.9349 353.8935,520.9788 -44.6554,60.2847 -44.6554,123.1743 47.6323,123.1743 64.7502,0 136.5709,-213.6013 136.5709,-318.5413 0,-135.8267 -96.009,-304.7727 -214.7177,-376.9654 -327.1003,-199.4605 -627.7795,61.0289 -615.4993,130.9889 4.4655,24.5605 32.003,49.1209 56.1913,49.1209 z"
     class="fil17" /><path
     style="fill:url(#linearGradient3263);stroke-width:0.37212774"
     id="path190"
     d="m 3014.2941,3381.5877 c 0,84.1009 91.1713,43.9111 142.1528,36.0964 429.4355,-68.4715 799.7026,-48.3766 1213.1365,96.009 183.0868,64.0059 438.3664,187.5524 595.0322,307.7496 20.4671,15.6294 35.3522,25.3047 57.3077,41.6783 l 160.3871,135.4545 c 20.8391,20.467 32.7472,24.1883 52.8421,46.1439 65.1223,72.1927 113.1268,110.5219 192.39,209.5079 l 169.6903,232.5798 c 8.9311,14.1409 29.7702,53.5864 40.5619,59.5404 131.3611,69.2158 -123.9185,-273.1417 -130.2447,-281.3285 -29.7702,-39.4456 -59.1683,-71.0764 -88.9385,-108.2892 -112.7547,-140.2922 -271.2812,-283.1892 -415.6667,-388.5014 -22.3277,-16.3736 -32.003,-25.6768 -56.5634,-42.0504 -119.453,-78.8911 -178.6213,-117.2202 -315.5644,-185.3196 -133.2217,-65.8666 -149.9674,-68.0994 -282.817,-119.453 -93.032,-36.0964 -211.7407,-66.6109 -313.7037,-88.5664 -237.0454,-50.9815 -530.2821,-68.0994 -764.3504,-37.2128 -38.7013,5.2098 -64.7502,6.6983 -102.3351,11.536 -85.5894,10.7917 -152.9445,11.5359 -152.9445,74.4255 z"
     class="fil18" /><path
     style="fill:url(#id1);stroke-width:0.37212774"
     id="path192"
     d="m 1398.1434,4504.2971 c 0,24.5604 71.8206,68.4715 91.1713,68.4715 29.0259,0 58.424,-67.7272 91.1713,-113.8711 29.3981,-41.6783 54.3306,-81.4959 88.1942,-124.2906 l 195.7392,-229.2307 c 34.6079,-37.5849 72.1928,-67.7273 109.0335,-103.8237 12.2802,-11.9081 14.5129,-13.3966 28.2817,-24.9325 l 209.5079,-162.2477 c 46.8881,-33.8636 49.493,-121.6858 -38.3292,-121.6858 -50.9815,0 -290.2596,211.7407 -348.3115,266.4435 l -38.7013,37.5849 c -83.7288,85.9615 -158.5264,165.5968 -231.0914,261.9779 -24.9325,33.1194 -155.9215,216.5784 -155.9215,246.3486 z"
     class="fil19" /><path
     style="fill:url(#id29);stroke-width:0.37212774"
     id="path194"
     d="m 1823.1132,4754.7391 c 25.3047,29.7702 88.9386,91.5434 125.7792,50.2372 l 86.7058,-133.5938 c 30.5145,-42.7947 61.4011,-75.1698 94.5204,-117.9645 l 104.5679,-115.7318 c 71.4486,-72.937 209.5079,-188.6687 296.5858,-242.2551 l 135.8267,-84.1009 c 44.6553,-26.0489 58.7961,-23.444 58.7961,-69.96 0,-155.9215 -276.4909,51.7258 -310.3545,76.6583 l -332.3101,282.0728 c -4.8376,5.2098 -7.0704,8.1869 -10.7917,12.2803 l -10.7917,12.2802 c -88.9385,100.4745 -176.0164,210.9964 -238.906,330.0773 z"
     class="fil20" /><path
     style="fill:url(#id14);stroke-width:0.37212774"
     id="path196"
     d="m 5305.8568,6719.9457 c -80.7518,0 -91.1713,-110.1498 -91.1713,-189.7852 0,-218.439 143.6413,-196.1113 225.5094,-134.3381 56.5634,42.4226 34.6079,36.4685 70.3321,73.6813 -4.0934,-199.4605 -231.8356,-293.6088 -353.5213,-133.5939 -33.4915,43.9111 -56.1913,132.1054 -56.1913,178.9935 0,387.385 295.0973,340.1247 370.2671,218.439 20.8391,-33.8636 47.2602,-124.2907 47.2602,-173.0394 0,-95.2647 -94.8926,-150.7118 -144.0134,-181.9705 8.1868,36.8407 30.5144,74.7977 30.5144,121.3137 0,89.6827 8.559,219.9274 -98.6138,219.9274 z"
     class="fil21" /><path
     style="fill:url(#id40);stroke-width:0.37212774"
     id="path198"
     d="m 3591.0921,6568.1176 c 0,-88.9386 80.7518,-120.1973 150.3396,-97.4975 40.9341,13.3966 94.1484,57.6798 118.3367,94.1483 l 27.1653,41.3062 c 0,-81.1239 -10.0475,-126.1513 -50.9815,-169.3181 -114.9875,-121.3137 -351.2886,-81.8681 -359.8475,153.3166 -2.2328,64.006 7.4425,113.1268 44.6553,154.433 32.7472,36.4685 72.5649,73.6813 138.4315,73.6813 66.2388,0 109.4056,1.8606 161.5035,-50.9815 137.3151,-138.8036 -33.8637,-252.3026 -62.8896,-260.1173 16.0015,34.6079 13.7687,19.7228 16.0015,68.0994 2.2327,53.9585 0.3721,144.0134 -84.1009,144.0134 -103.4515,0 -98.6139,-81.8681 -98.6139,-151.8281 z"
     class="fil22" /><path
     style="fill:url(#id10);stroke-width:0.37212774"
     id="path200"
     d="m 5768.7837,2850.1893 c 0,32.003 10.0474,28.6538 59.9125,69.2158 l 139.9201,117.9645 c 120.5694,105.6842 146.2462,135.4545 295.0973,205.7866 99.3581,46.8881 136.5708,114.2432 174.1558,212.4849 50.2372,132.1054 88.5664,192.3901 169.6902,308.4939 35.3521,50.6094 96.3811,160.7592 125.0349,170.8067 34.2358,-24.5605 11.9081,-48.7488 -4.8376,-78.8911 -17.8622,-32.3751 -31.6309,-53.9585 -52.0979,-84.473 l -242.9994,-463.299 c -11.1639,-16.0015 -18.2343,-21.9556 -31.6309,-36.0964 -76.2862,-81.1239 -119.453,-80.3796 -196.8556,-129.5005 -80.3796,-50.9815 -78.1468,-43.5389 -148.4789,-117.2202 -1.4885,-1.4885 -4.8377,-5.2098 -6.3262,-6.6983 l -6.3262,-4.8377 c -1.1164,-0.7442 -5.5819,-1.1164 -17.8621,-11.1638 -23.0719,-18.9785 -256.396,-265.6992 -256.396,-153.6888 z M 320.83356,3882.0995 c 0,31.2588 82.24023,68.4715 83.35661,68.4715 46.14384,0 65.12236,-61.0289 104.19577,-123.5464 l 34.98001,-48.3766 c 7.07043,-11.1638 6.6983,-11.1638 11.53596,-18.9785 l 148.47897,-208.0194 c 101.59087,-130.2447 136.57088,-163.7362 236.30111,-272.3975 l 274.63031,-264.2107 c 94.5204,-75.9141 28.2817,-133.5939 -13.3966,-135.0824 -76.6583,-2.6049 -340.86904,292.1203 -400.03736,351.6607 -22.32766,22.3277 -43.91107,41.3062 -64.37809,64.3781 l -113.12684,137.3152 c -83.35661,112.0104 -126.52343,164.4804 -210.25217,290.2596 -15.62937,23.4441 -91.91555,138.8037 -91.91555,158.1543 z M 2786.9241,2220.5492 3080.905,2173.289 c 23.4441,-2.9771 50.2373,-10.4196 70.7043,-12.2803 l 401.5258,-23.8161 c 61.7732,0 109.0334,3.7212 167.0854,7.4425 89.3106,5.9541 240.3945,2.6049 317.7971,24.1883 l 180.1098,25.3047 c 1.8606,0.3721 3.7213,1.1164 5.5819,1.4885 1.4885,0.3721 3.3491,1.1164 4.8377,1.4885 l 17.8621,4.4656 c 21.9555,3.3491 48.3766,5.954 73.3092,11.908 l 400.7815,107.545 c 21.9556,7.8146 42.7947,11.9081 63.2617,20.0949 61.7733,24.9325 115.7318,39.8176 184.9475,72.5649 37.5849,17.8621 117.2203,59.1683 117.2203,-10.7917 0,-29.7703 -23.8162,-32.003 -48.0045,-43.1669 l -260.1173,-104.1957 c -117.2202,-39.4456 -376.5933,-123.9186 -496.7905,-140.6643 l -155.1773,-27.1653 c -337.5199,-55.4471 -695.5067,-68.0994 -1033.0266,-23.8162 -59.9126,7.8147 -263.8386,32.3751 -313.3316,50.9815 -21.2112,7.8147 -35.3521,20.467 -34.2357,53.2143 0.7442,23.444 24.5604,52.47 41.3062,52.47 z"
     class="fil23" /><path
     style="fill:url(#id30);stroke-width:0.37212774"
     id="path202"
     d="m 1913.9124,2053.4638 c 0,21.9556 -1.8606,26.4211 10.4196,43.9111 23.444,33.4915 -5.2098,2.6049 35.7243,10.0474 0.7442,0 8.1868,5.9541 30.1423,6.6983 13.7687,-20.467 20.467,-20.467 27.1653,-45.7717 16.7458,-61.7732 48.7488,-97.1253 116.8481,-114.2432 79.2632,-19.7228 174.5279,33.1194 174.5279,152.2003 0,49.8651 -31.6308,68.0993 -15.6293,105.6842 5.2098,12.2803 2.6049,26.049 46.8881,31.6309 11.1638,1.4885 23.8162,0.3721 33.8636,-3.3492 55.8192,-19.3506 97.1253,-212.4849 -21.2113,-330.0773 -64.7502,-64.3781 -182.3426,-100.8466 -281.3286,-56.5634 -39.4455,17.49 -62.5174,30.8866 -89.6827,62.1454 -40.9341,46.5159 -26.4211,23.8161 -49.8652,77.4025 -0.3721,0.7443 -1.4885,2.6049 -1.8606,3.7213 -8.5589,17.49 -16.0015,18.6064 -16.0015,56.1913 z"
     class="fil24" /><path
     style="fill:url(#id27);stroke-width:0.37212774"
     id="path204"
     d="m 3128.1652,6560.675 c 0,-58.7962 91.9156,-131.7332 203.926,-59.5404 27.9096,18.2342 37.9571,34.6078 61.7732,53.9585 0,-60.2847 -13.3966,-97.4975 -37.5849,-131.3611 -80.7517,-114.2432 -224.0209,-8.1868 -228.1143,-7.0704 v -151.8281 c -40.5619,-27.1654 -18.6064,-25.6769 -113.1268,-21.9556 l -0.7443,530.282 c 0,17.1179 4.8377,14.1409 7.4426,37.9571 h 106.0564 v -250.442 z"
     class="fil25" /><path
     style="fill:url(#linearGradient3265);stroke-width:0.37212774"
     id="path206"
     d="m 821.34537,6598.632 c 0,-39.4455 53.21427,-16.7457 130.98897,-19.3506 92.28766,-3.3492 60.65686,-6.6983 58.79616,-94.1483 H 821.34537 c 0,-214.7177 20.46703,-219.9275 -107.54492,-219.9275 l 1.11639,447.6697 c 0,23.444 -5.95405,7.0704 -0.74426,39.0734 2.97702,18.2342 2.6049,20.467 11.16383,34.6078 21.95554,35.7243 33.4915,24.9326 96.38109,24.9326 v -212.4849 z"
     class="fil26" /><path
     style="fill:url(#id34);stroke-width:0.37212774"
     id="path208"
     d="m 2316.1825,6667.1035 c -59.5404,0 -85.5894,-62.5174 -78.519,-108.6613 16.0015,-104.1957 87.4501,-96.381 146.6184,-96.381 66.6108,0 111.2662,79.2632 144.0134,91.1713 -7.0704,-17.4901 -2.2328,-33.8637 -12.6523,-62.8896 -49.1209,-137.6873 -242.2552,-156.2937 -338.2641,-60.2847 -48.3767,48.3766 -51.3537,101.963 -51.3537,168.946 0,164.8526 243.3716,203.5538 277.2352,117.9645 9.6753,-24.5605 3.7213,-74.0535 3.7213,-102.7073 l -10.4196,12.6523 c -1.4885,1.4886 -5.2098,6.6983 -6.6983,8.1869 -5.2098,5.954 -13.3966,14.5129 -19.3506,18.6063 -15.2573,10.0475 -30.5145,13.7688 -54.7028,13.7688 z"
     class="fil27" /><path
     style="fill:url(#id13);stroke-width:0.37212774"
     id="path210"
     d="m 1769.899,6553.2325 c 0,-22.6998 16.7457,-64.3781 45.0274,-76.6584 100.4745,-43.1668 189.7852,72.5649 220.6718,99.3581 7.4425,-42.0504 -2.977,-95.2647 -27.9096,-131.361 -54.7028,-79.2633 -207.6473,-103.4516 -289.1432,-26.4211 -19.7228,18.6064 -54.7028,69.5879 -54.7028,104.5679 0,338.2641 -34.2358,288.399 106.0564,288.399 z"
     class="fil28" /><path
     style="fill:url(#id36);stroke-width:0.37212774"
     id="path212"
     d="m 6117.8395,6712.5031 c 31.6309,-47.2602 93.7762,-80.7517 138.8036,-119.453 64.7503,-55.8191 17.8622,-150.3396 -9.6753,-168.946 0,59.9126 -22.6998,66.6109 -55.0749,96.7532 -52.47,49.1209 -210.6243,149.5954 -210.6243,229.6029 0,80.3795 94.5205,60.6568 174.5279,60.6568 235.1848,0 205.0424,26.0489 205.0424,-98.6139 h -242.6273 z"
     class="fil29" /><path
     style="fill:url(#id38);stroke-width:0.37212774"
     id="path214"
     d="m 4789.7156,6712.5031 c 54.7028,-81.496 167.0853,-112.0104 167.0853,-167.0853 0,-43.539 8.9311,-89.6828 -37.957,-121.3137 0,34.2358 0.7443,42.4226 -15.2572,60.6568 l -123.1743,104.5679 c -42.7947,34.6079 -127.2677,99.3581 -127.2677,168.5739 0,29.7702 28.2817,53.2143 60.6568,53.2143 h 295.8416 c 32.3751,0 22.6998,-29.026 22.6998,-98.6139 z"
     class="fil30" /><path
     style="fill:url(#id37);stroke-width:0.37212774"
     id="path216"
     d="m 5685.0549,6712.5031 c 30.5145,-45.3996 135.4545,-111.6383 152.2003,-128.384 l 7.0704,-8.1869 c 35.3521,-49.1208 -9.3032,-126.5234 -15.2572,-151.8281 -31.6309,32.3751 1.4885,45.0275 -65.1224,94.5205 l -132.4775,110.5219 c -71.8206,54.7028 -75.914,82.2402 -75.914,159.2707 16.3736,11.1638 25.3047,22.6998 53.2142,22.6998 h 295.8416 c 32.3751,0 22.6998,-29.026 22.6998,-98.6139 h -242.6273 z"
     class="fil31" /><path
     style="fill:url(#id41);stroke-width:0.37212774"
     id="path218"
     d="m 2399.5391,6500.0182 c 25.6768,57.6798 59.9126,326.7281 -68.0994,341.6132 -142.1528,16.3737 -174.5279,-79.2632 -174.5279,-15.2572 0,171.5509 240.7667,110.522 271.2812,88.9385 101.963,-72.1927 100.8466,-167.8296 100.8466,-286.1662 0,-59.5404 -81.496,-117.9645 -129.1284,-129.1283 z"
     class="fil32" /><path
     style="fill:#9d29c8;stroke-width:0.37212774"
     id="path220"
     d="m 1041.2729,6264.8335 c -0.7443,113.871 0,227.7421 0,341.6132 0,263.8386 7.8146,177.8771 106.0564,212.485 0,-111.2662 0,-222.5324 0,-333.7986 0,-197.972 27.5374,-219.9275 -106.0564,-219.9275 z"
     class="fil33" /><path
     style="fill:url(#id39);stroke-width:0.37212774"
     id="path222"
     d="m 3977.7329,6621.3318 c 0,208.0194 254.5353,249.6977 326.356,151.8281 -99.7302,0 -179.7377,-27.9095 -203.926,-99.7302 -23.0719,-69.2157 13.0245,-232.2077 -17.1179,-287.2826 -6.6983,-3.7213 -56.5634,-7.4426 -97.8696,-7.4426 -2.6049,29.3981 -7.4425,18.6064 -7.4425,37.9571 v 205.0424 z"
     class="fil34" /><path
     style="fill:#005df3;stroke-width:0.37212774"
     id="path224"
     d="m 1587.9285,5824.6063 c -24.9325,14.1409 -22.3276,20.8392 -56.9355,26.7932 -155.9216,25.3047 -117.9645,-232.2077 23.0719,-160.0149 80.7517,41.3062 55.447,263.0943 -9.3032,295.8416 -25.6768,13.0244 -50.2372,9.6753 -76.6583,3.7212 -37.957,-8.5589 -46.516,-29.0259 -77.4026,-37.2127 -0.3721,55.8191 5.5819,70.3321 51.3536,85.2172 30.5145,9.6753 88.1943,10.0475 119.0809,1.4885 117.2203,-32.7472 109.7777,-263.4664 74.4256,-339.3805 -39.8177,-84.473 -142.525,-86.3336 -207.2752,-43.911 -96.3811,62.8895 -60.2847,243.3715 61.4011,243.3715 62.5175,0 45.3996,2.977 99.3581,-29.3981 l -0.7443,-46.516 z"
     class="fil35" /><path
     style="fill:url(#id35);stroke-width:0.37212774"
     id="path226"
     d="m 2733.3377,6712.5031 c 65.1224,-96.7532 116.1039,-104.5679 91.1713,-212.4849 -18.6064,-1.4885 -20.0949,-2.2328 -33.4915,-7.4426 l -106.4285,117.9645 c -26.4211,33.4915 -87.8222,87.0779 -87.8222,139.9201 0,36.0963 27.9096,60.6568 60.6568,60.6568 343.1018,0 261.2337,20.8391 276.1188,-91.1713 -61.4011,-18.9785 -175.2721,4.4655 -200.2047,-7.4426 z"
     class="fil36" /><path
     style="fill:url(#id33);stroke-width:0.37212774"
     id="path228"
     d="m 1398.1434,6727.7604 c -62.5175,0 -79.6354,-59.5405 -41.6783,-87.4501 50.2372,-36.8406 110.1498,12.2803 110.1498,-34.2357 0,-48.3766 5.5819,-60.6568 -22.6998,-60.6568 -297.3301,0 -250.442,227.37 -111.2662,263.0943 131.3611,33.4915 247.8371,-1.8607 247.8371,-171.923 -37.9571,26.421 -58.7962,91.1713 -181.9705,91.1713 z"
     class="fil37" /><path
     style="fill:#005df3;stroke-width:0.37212774"
     id="path230"
     d="m 2498.8972,5887.8681 c 4.0934,-33.1194 50.9815,-160.7592 65.1224,-177.8771 l 96.3811,278.7237 c 14.5129,46.8881 10.4195,50.6093 65.4944,55.8191 -0.7442,-38.7013 -84.1008,-274.6302 -104.94,-327.8445 -16.7457,-43.1668 -20.8391,-85.2173 -54.3306,-89.6828 -47.2603,10.7917 -47.6324,40.1898 -65.1224,86.3336 -24.5604,65.4945 -108.2892,288.7712 -109.4055,330.8216 l 51.7257,-0.7443 39.8177,-105.3121 144.7577,-4.0934 c -9.6753,-43.539 -13.0245,-47.6324 -48.3766,-49.1209 -35.7243,-1.4885 -53.9586,0.7443 -81.1239,2.2328 z"
     class="fil35" /><path
     style="fill:#005df3;stroke-width:0.37212774"
     id="path232"
     d="m 2005.0837,6044.906 c 11.536,-99.7303 -32.7472,-272.7697 83.3566,-273.5139 122.0579,-0.7443 35.3522,161.1313 81.8681,267.5598 l 47.2603,-1.4885 c 1.8606,-75.1698 10.0474,-205.0424 -16.7458,-263.8386 -16.0015,-34.98 -48.0045,-51.7257 -89.6828,-55.0749 -68.4715,-5.5819 -62.5174,17.1179 -100.4745,37.2128 15.2573,-137.6873 -2.977,-143.2692 -58.424,-143.2692 v 426.0863 l 53.2142,6.6983 z"
     class="fil35" /><path
     style="fill:#005df3;stroke-width:0.37212774"
     id="path234"
     d="m 4030.9471,5817.1638 v 60.6568 c 0,65.1224 92.2877,167.0854 159.2707,167.0854 154.8051,0 168.2017,-11.9081 159.2707,-189.7852 h -53.2143 c 0,135.0824 15.2572,136.5709 -91.1713,136.5709 -77.7747,0 -136.5709,-98.986 -112.7547,-203.5539 17.8621,-77.7747 122.8022,-139.92 213.9735,-87.0779 25.6768,14.8851 32.7472,40.1898 41.6783,8.559 15.6293,-57.3077 -72.9371,-89.3107 -158.1543,-74.4256 -83.3566,14.513 -159.2707,85.9615 -159.2707,181.9705 z"
     class="fil35" /><path
     style="fill:url(#id25);stroke-width:0.37212774"
     id="path236"
     d="m 1246.3152,6507.4607 c 36.4686,-9.6753 49.8652,-37.957 98.6139,-37.957 146.2462,0 129.1283,-8.9311 129.1283,219.9275 45.0275,-20.467 106.0564,-58.0519 106.0564,-113.8711 0,-59.1683 -4.8376,-111.2662 -43.1668,-154.0609 -55.8191,-62.1453 -189.7851,-65.1223 -253.419,-21.2113 -39.0734,26.7932 -37.957,43.9111 -37.2128,107.1728 z"
     class="fil38" /><path
     style="fill:#005df3;stroke-width:0.37212774"
     id="path238"
     d="m 5389.2134,5991.6917 c -75.1698,0 -113.8711,-93.0319 -80.3796,-171.5509 27.5374,-64.3781 151.0838,-83.7287 148.1068,26.7932 -54.3306,19.7228 -87.0779,15.6294 -143.6413,15.6294 v 45.3995 c 99.7303,0 218.0669,19.7228 196.4835,-105.3121 -17.1179,-96.7532 -160.3871,-112.3826 -221.7882,-41.6783 -47.2602,54.7028 -43.1668,87.8221 -43.1668,154.433 0,133.966 188.2967,156.2937 242.2552,105.6843 19.3506,-18.2343 14.1408,-33.4915 8.1868,-59.9126 -47.2602,31.2587 -44.6553,30.5145 -106.0564,30.5145 z"
     class="fil35" /><path
     style="fill:#005df3;stroke-width:0.37212774"
     id="path240"
     d="m 3249.4789,5801.9065 c 33.1193,-7.4425 33.4915,-30.5144 68.4715,-30.5144 93.7762,0 106.4285,-3.3492 106.4285,106.0564 0,61.0289 10.0475,113.8711 -53.2143,113.8711 -101.963,0 -127.2676,-98.6139 38.3292,-98.6139 l -0.3721,-45.3996 c -73.6813,0 -174.5279,2.6049 -174.5279,106.0564 0,112.7547 246.3485,148.479 246.3485,-22.6998 0,-62.5174 17.1179,-212.4849 -94.5204,-212.4849 -90.4271,0 -136.5709,0.7443 -136.5709,83.3566 z"
     class="fil35" /><path
     style="fill:#005df3;stroke-width:0.37212774"
     id="path242"
     d="m 4433.2172,5801.9065 c 38.7013,-10.0474 36.8407,-34.6078 106.4285,-31.6308 43.539,1.8606 68.0994,22.6998 68.0994,61.7732 0,87.8221 19.3507,160.0149 -68.0994,160.387 -71.8206,0 -123.1742,-99.3581 52.8422,-99.7302 v -45.3996 h -68.4715 c -44.6553,0 -106.0564,43.1668 -106.0564,91.1713 0,100.4745 68.4715,106.0564 144.0134,106.0564 153.6888,0 94.8926,-256.396 90.7992,-265.327 -35.7243,-81.8682 -219.9275,-99.7303 -219.9275,22.6997 z"
     class="fil35" /><path
     style="fill:url(#id16);stroke-width:0.37212774"
     id="path244"
     d="m 5578.9985,6401.4043 c 28.2817,-7.4425 24.9326,-19.7227 58.4241,-32.7472 89.3106,-35.3521 182.7147,-11.9081 224.0209,76.6583 23.0719,49.493 3.3491,132.1054 43.9111,62.8896 40.1898,-68.8436 24.5604,-148.479 -21.2113,-199.4605 -52.8422,-59.1683 -120.5694,-51.3536 -191.2737,-51.3536 -80.7517,0 -153.3166,62.5175 -113.8711,144.0134 z"
     class="fil39" /><path
     style="fill:url(#id12);stroke-width:0.37212774"
     id="path246"
     d="m 4687.3805,6405.1256 c 27.9095,-21.5834 61.401,-49.493 110.1498,-49.493 52.8421,0 112.0104,-3.3491 151.8281,60.6568 23.0719,37.2128 25.6768,60.2847 32.7472,119.0809 46.8881,-27.9096 60.2847,-121.3136 36.0964,-180.4819 -40.934,-101.5909 -146.9904,-98.2418 -220.6717,-98.2418 -64.006,0 -168.5739,47.6324 -110.1498,148.1069 z"
     class="fil40" /><path
     style="fill:url(#id11);stroke-width:0.37212774"
     id="path248"
     d="m 6011.411,6401.4043 c 41.3061,-10.4195 50.9815,-45.3996 113.871,-45.3996 54.3307,0 110.1499,-4.0934 151.8282,60.6569 23.8161,36.4685 30.1423,63.2617 30.1423,121.6857 19.7228,-13.0244 42.4226,-46.5159 45.7717,-75.914 4.0934,-36.8407 3.7213,-82.6124 -9.6753,-111.6383 -10.7917,-23.072 -36.0964,-51.3537 -56.5634,-64.7503 -58.7962,-38.3291 -195.7392,-40.934 -253.7911,0.3722 -41.6783,29.3981 -45.3996,69.96 -21.2113,115.3596 z"
     class="fil41" /><path
     style="fill:#005df3;stroke-width:0.37212774"
     id="path250"
     d="m 4797.5303,5855.1208 c 0,-50.9815 23.0719,-93.4041 81.8681,-82.9845 99.3581,17.49 25.3047,206.903 62.8896,258.2567 11.1638,15.2572 39.0734,16.7457 46.1438,7.4425 4.4655,-6.3261 42.4226,-259.7451 -69.2158,-311.0988 -44.6553,-20.8391 -100.4744,-5.5819 -129.5004,14.1409 -26.049,17.49 -52.8421,64.006 -52.8421,106.8007 0,104.94 -20.8392,223.2766 45.0274,196.1113 26.0489,-10.7917 16.0015,-29.026 16.0015,-67.3551 v -121.3137 z"
     class="fil35" /><path
     style="fill:url(#id24);stroke-width:0.37212774"
     id="path252"
     d="m 4342.7902,6735.2029 c 20.0949,-72.5649 13.7687,-148.8511 14.513,-235.1847 0.7442,-108.2892 -10.4196,-121.3137 -106.4286,-121.3137 0,70.7043 -0.3721,141.7807 0.3722,212.485 0.3721,75.1698 -5.582,122.8021 -75.9141,128.7562 14.1408,18.9785 52.8421,32.7472 76.2862,34.98 30.1423,2.6049 68.8436,-9.6753 91.5434,-19.7228 z"
     class="fil42" /><path
     style="fill:#005df3;stroke-width:0.37212774"
     id="path254"
     d="m 3598.5347,6044.906 c 33.4915,0 22.3277,-31.6309 20.467,-68.0994 -4.4655,-90.4271 -15.6293,-197.5998 63.2617,-205.4145 116.8481,-11.536 88.1943,129.1283 90.7992,265.6992 33.4915,9.3032 18.2343,7.0704 53.2143,0.7442 0.3721,-137.3151 29.7702,-319.2856 -113.8711,-319.2856 -189.413,0 -151.8281,148.479 -151.8281,318.5414 l 37.957,7.4425 z"
     class="fil35" /><path
     style="fill:#005df3;stroke-width:0.37212774"
     id="path256"
     d="m 2991.5944,5938.4774 c 0,-93.404 -145.8741,-72.1928 -167.8297,-113.8711 -20.8391,-40.1898 37.5849,-53.9585 69.2158,-53.9585 55.447,-0.3721 91.1713,46.8881 91.1713,0.7443 0,-64.3781 -219.9275,-102.3352 -219.9275,60.6568 0,84.473 146.9905,44.6553 166.3411,113.8711 7.4426,70.3321 -100.1024,47.2602 -158.8985,15.2572 -7.8147,33.4915 -11.536,47.6324 23.0719,67.7273 24.1883,13.7687 48.3766,19.3506 83.3566,17.49 71.0764,-3.7213 113.8711,-36.4686 113.8711,-107.9171 z"
     class="fil35" /><path
     style="fill:#005df3;stroke-width:0.37212774"
     id="path258"
     d="m 5556.2987,5801.9065 c 0,143.6414 157.7822,65.8667 166.7133,145.1299 7.4425,64.3781 -95.6369,52.8421 -159.2707,14.5129 -20.0949,74.0535 56.9355,87.8222 114.2432,84.473 117.5924,-7.4425 151.456,-145.5019 36.0964,-181.5983 -48.3766,-15.2572 -77.7747,-9.3032 -103.0794,-46.8881 6.6983,-31.2587 26.4211,-44.6553 66.6109,-46.516 67.7272,-2.977 52.0979,19.7228 98.6138,23.4441 0,-66.2387 -47.6323,-81.1239 -113.4989,-75.9141 -48.3766,3.7213 -106.4286,37.5849 -106.4286,83.7288 z"
     class="fil35" /><path
     style="fill:url(#id31);stroke-width:0.37212774"
     id="path260"
     d="m 2596.7668,6454.6186 c 0,35.7243 34.98,14.8851 83.3566,15.6294 123.1743,1.8606 107.5449,-15.2573 174.9001,30.1423 v 68.4715 c 53.2142,-35.7242 68.4715,-77.7747 68.4715,-136.5709 0,-45.7717 -73.6813,-53.2142 -91.1713,-53.2142 -222.5324,0 -235.1848,-12.6524 -235.1848,75.914 z"
     class="fil43" /><path
     style="fill:#005df3;stroke-width:0.37212774"
     id="path262"
     d="m 1731.942,5710.7352 c 0,96.3811 -17.8622,270.5369 27.5374,314.0759 27.9096,26.7932 136.1988,32.3751 131.7332,-10.4196 l -2.2327,-27.1653 c -104.5679,15.6293 -112.3826,-4.0934 -99.3581,-203.5539 34.2357,-11.536 46.5159,-0.3721 80.0074,-3.7213 39.4456,-4.0934 29.7702,-10.4196 29.7702,-53.5864 l -109.7776,-2.2328 -5.2098,-65.8666 c -33.8637,2.6049 -52.47,17.8622 -52.47,53.2143 z"
     class="fil35" /><path
     style="fill:#005df3;stroke-width:0.37212774"
     id="path264"
     d="m 1155.144,5725.9925 c 36.4685,0 64.0059,-10.0475 87.45,-26.7932 8.5589,32.7472 4.0934,220.2996 3.3491,277.6073 -1.1164,72.1928 -8.1868,68.0994 61.029,68.0994 0,-83.3567 6.3261,-354.6378 -7.4426,-409.7127 -60.6568,0 -59.1683,8.1868 -101.963,27.1653 -52.0979,23.072 -53.5864,15.6294 -42.0504,63.6339 z"
     class="fil35" /><path
     style="fill:url(#id32);stroke-width:0.37212774"
     id="path266"
     d="m 3272.1787,6507.4607 c 29.3981,60.6569 15.2572,197.5999 15.2572,280.5844 43.5389,29.0259 34.98,22.6997 106.0564,22.6997 0,-170.4345 21.5834,-195.7391 -47.2602,-263.8385 -23.0719,-23.0719 -33.1194,-32.7473 -74.4256,-39.4456 z"
     class="fil44" /><path
     style="fill:url(#id5);stroke-width:0.37212774"
     id="path268"
     d="m 1913.9124,6507.4607 c 47.2602,105.6843 -33.4915,303.2841 68.4715,303.6563 69.96,0 53.2143,7.4425 59.5405,-26.7932 5.5819,-31.2588 -5.9541,-61.4011 -3.7213,-107.1728 1.1164,-22.3277 1.8606,-47.6324 -14.1409,-74.7977 -20.467,-34.98 -67.3551,-85.2172 -109.7777,-95.2647 z"
     class="fil45" /><path
     style="fill:#005df3;stroke-width:0.37212774"
     id="path270"
     d="m 4994.758,5801.9065 c 175.6443,-115.7317 131.7332,118.7088 135.8266,197.972 2.2328,43.1668 7.0704,35.7243 46.516,44.6553 0,0 12.6523,-6.3261 13.3966,-36.0964 1.4885,-64.0059 3.3491,-204.6702 -24.5605,-248.5813 -31.6308,-50.6094 -133.966,-62.1453 -189.413,-2.6049 l 18.6064,45.0275 z"
     class="fil35" /><path
     style="fill:#005df3;stroke-width:0.37212774"
     id="path272"
     d="m 3074.5788,5862.5634 c 0,99.3581 -17.1178,181.9704 91.5435,181.9704 33.1193,0 37.5849,-11.9081 37.957,-53.2142 -87.0779,0 -75.5419,-28.6539 -75.9141,-113.8711 v -159.2707 c -65.1223,12.6523 -53.5864,-39.4455 -53.5864,144.0134 z"
     class="fil35" /><path
     style="fill:#005df3;stroke-width:0.37212774"
     id="path274"
     d="m 3067.5084,5665.7078 c 62.5175,33.1194 72.5649,3.7213 66.2387,-49.1209 -44.6553,-19.7227 -68.8436,-23.0719 -66.2387,49.1209 z"
     class="fil35" /></g>
</svg>